<svg xmlns="http://www.w3.org/2000/svg" version="1.1" xmlns:xlink="http://www.w3.org/1999/xlink" xmlns:svgjs="http://svgjs.dev/svgjs" width="1500" height="1500" viewBox="0 0 1500 1500"><rect width="1500" height="1500" fill="#ffffff"></rect><g transform="matrix(0.6666666666666666,0,0,0.6666666666666666,249.78425655976667,249.78425655976673)"><svg viewBox="0 0 343 343" data-background-color="#001f3f" preserveAspectRatio="xMidYMid meet" height="1500" width="1500" xmlns="http://www.w3.org/2000/svg" xmlns:xlink="http://www.w3.org/1999/xlink"><g id="tight-bounds" transform="matrix(1,0,0,1,0.0740000000000407,0.07400000000001228)"><svg viewBox="0 0 342.85155851775386 342.85155851775386" height="342.85155851775386" width="342.85155851775386"><g><svg></svg></g><g><svg viewBox="0 0 342.85155851775386 342.85155851775386" height="342.85155851775386" width="342.85155851775386"><g><path d="M0 171.426c0-94.676 76.75-171.426 171.426-171.426 94.676 0 171.426 76.75 171.426 171.426 0 94.676-76.75 171.426-171.426 171.426-94.676 0-171.426-76.75-171.426-171.426zM171.426 337.077c91.486 0 165.651-74.164 165.651-165.651 0-91.486-74.164-165.651-165.651-165.651-91.486 0-165.651 74.164-165.651 165.651 0 91.486 74.164 165.651 165.651 165.651z" data-fill-palette-color="tertiary" fill="#000000" stroke="transparent"></path><ellipse rx="164.56874808852186" ry="164.56874808852186" cx="171.42577925887693" cy="171.42577925887693" fill="#000000" stroke="transparent" stroke-width="0" fill-opacity="1" data-fill-palette-color="tertiary"></ellipse></g><g transform="matrix(1,0,0,1,64.84655864529837,87.599604139521)"><svg viewBox="0 0 213.1584412271571 167.65235023871185" height="167.65235023871185" width="213.1584412271571"><g><svg viewBox="0 0 213.1584412271571 167.65235023871185" height="167.65235023871185" width="213.1584412271571"><g><svg viewBox="0 0 213.1584412271571 167.65235023871185" height="167.65235023871185" width="213.1584412271571"><g transform="matrix(1,0,0,1,0,103.61587832624184)"><svg viewBox="0 0 213.1584412271571 64.03647191247002" height="64.03647191247002" width="213.1584412271571"><g id="textblocktransform"><svg viewBox="0 0 213.1584412271571 64.03647191247002" height="64.03647191247002" width="213.1584412271571" id="textblock"><g><svg viewBox="0 0 213.1584412271571 64.03647191247002" height="64.03647191247002" width="213.1584412271571"><g transform="matrix(1,0,0,1,0,0)"><svg width="213.1584412271571" viewBox="1.35 -42.3 179.74 54" height="64.03647191247002" data-palette-color="url(#e56bc056-1bba-4be3-a3ed-4bb432b0dadd)"></svg></g></svg></g></svg></g></svg></g><g transform="matrix(1,0,0,1,71.07645542512121,0)"><svg viewBox="0 0 71.00553037691469 88.49840418303357" height="88.49840418303357" width="71.00553037691469"><g><svg xmlns="http://www.w3.org/2000/svg" xmlns:xlink="http://www.w3.org/1999/xlink" version="1.1" x="0" y="0" viewBox="13.894 4.999147523602847 72.21099999999998 90.00085247639716" enable-background="new 0 0 100 100" xml:space="preserve" height="88.49840418303357" width="71.00553037691469" class="icon-icon-0" data-fill-palette-color="quaternary" id="icon-0"></svg></g></svg></g><g></g></svg></g></svg></g></svg></g></svg></g><defs></defs><mask id="f0539eb8-6e61-4c34-a394-8956053a8c23"><g id="SvgjsG3544"><svg viewBox="0 0 342.85155851775386 342.85155851775386" height="342.85155851775386" width="342.85155851775386"><g><svg></svg></g><g><svg viewBox="0 0 342.85155851775386 342.85155851775386" height="342.85155851775386" width="342.85155851775386"><g><path d="M0 171.426c0-94.676 76.75-171.426 171.426-171.426 94.676 0 171.426 76.75 171.426 171.426 0 94.676-76.75 171.426-171.426 171.426-94.676 0-171.426-76.75-171.426-171.426zM171.426 337.077c91.486 0 165.651-74.164 165.651-165.651 0-91.486-74.164-165.651-165.651-165.651-91.486 0-165.651 74.164-165.651 165.651 0 91.486 74.164 165.651 165.651 165.651z" fill="black" stroke="transparent"></path><ellipse rx="164.56874808852186" ry="164.56874808852186" cx="171.42577925887693" cy="171.42577925887693" fill="black" stroke="transparent" stroke-width="0" fill-opacity="1"></ellipse></g><g transform="matrix(1,0,0,1,64.84655864529837,87.599604139521)"><svg viewBox="0 0 213.1584412271571 167.65235023871185" height="167.65235023871185" width="213.1584412271571"><g><svg viewBox="0 0 213.1584412271571 167.65235023871185" height="167.65235023871185" width="213.1584412271571"><g><svg viewBox="0 0 213.1584412271571 167.65235023871185" height="167.65235023871185" width="213.1584412271571"><g transform="matrix(1,0,0,1,0,103.61587832624184)"><svg viewBox="0 0 213.1584412271571 64.03647191247002" height="64.03647191247002" width="213.1584412271571"><g id="SvgjsG3543"><svg viewBox="0 0 213.1584412271571 64.03647191247002" height="64.03647191247002" width="213.1584412271571" id="SvgjsSvg3542"><g><svg viewBox="0 0 213.1584412271571 64.03647191247002" height="64.03647191247002" width="213.1584412271571"><g transform="matrix(1,0,0,1,0,0)"><svg width="213.1584412271571" viewBox="1.35 -42.3 179.74 54" height="64.03647191247002" data-palette-color="url(#e56bc056-1bba-4be3-a3ed-4bb432b0dadd)"><path d="M30.3 0L26.2-11.05 10.4-11.05 6.35 0 1.35 0 15.6-38.35 21-38.35 35.3 0 30.3 0ZM12.05-15.4L24.55-15.4 18.3-32.3 12.05-15.4ZM48.15 0.65Q44.4 0.65 42.75-0.85 41.1-2.35 41.1-5.9L41.1-5.9 41.1-42.3 45.8-42.3 45.8-7.15Q45.8-5.15 46.42-4.42 47.05-3.7 48.8-3.7L48.8-3.7Q50.2-3.7 51.3-4L51.3-4 51.3 0.3Q49.3 0.65 48.15 0.65L48.15 0.65ZM69.75-28.45Q75.35-28.45 78.67-24.7 82-20.95 82-13.8L82-13.8Q82-6.65 78.67-2.9 75.35 0.85 69.75 0.85L69.75 0.85Q65.7 0.85 61.75-2.5L61.75-2.5 61.75 11.7 57.05 11.7 57.05-27.65 61.75-27.65 61.75-25.05Q65.75-28.45 69.75-28.45L69.75-28.45ZM69.1-3.5Q73.05-3.5 75.1-6.13 77.15-8.75 77.15-13.8L77.15-13.8Q77.15-18.85 75.1-21.45 73.05-24.05 69.1-24.05L69.1-24.05Q65.35-24.05 61.75-20.95L61.75-20.95 61.75-6.6Q65.45-3.5 69.1-3.5L69.1-3.5ZM102.49-28.25Q107.59-28.25 110.07-25.55 112.54-22.85 112.54-16.65L112.54-16.65 112.54 0 107.84 0 107.84-16.65Q107.84-20.55 106.52-22.2 105.19-23.85 101.84-23.85L101.84-23.85Q97.94-23.85 94.04-20.45L94.04-20.45 94.04 0 89.34 0 89.34-42.3 94.04-42.3 94.04-24.7Q98.09-28.25 102.49-28.25L102.49-28.25ZM124.49-13.45Q124.59-8.85 126.79-6.1 128.99-3.35 133.79-3.35L133.79-3.35Q137.44-3.35 141.79-5.4L141.79-5.4 143.24-1.5Q138.69 0.85 133.39 0.85L133.39 0.85Q128.99 0.85 125.89-1 122.79-2.85 121.19-6.15 119.59-9.45 119.59-13.85L119.59-13.85Q119.59-18.5 121.27-21.78 122.94-25.05 125.79-26.75 128.64-28.45 132.19-28.45L132.19-28.45Q137.64-28.45 140.74-25.05 143.84-21.65 143.84-15.3L143.84-15.3 143.84-13.45 124.49-13.45ZM132.19-24.25Q125.99-24.25 124.79-17.4L124.79-17.4 138.89-17.4Q138.64-20.9 136.99-22.58 135.34-24.25 132.19-24.25L132.19-24.25ZM181.09 0L175.39 0 164.64-16 153.89 0 148.19 0 161.69-19.5 149.09-37.9 154.74-37.9 164.69-23.15 174.59-37.9 180.24-37.9 167.64-19.5 181.09 0Z" opacity="1" transform="matrix(1,0,0,1,0,0)" fill="white" class="wordmark-text-0" id="SvgjsPath3541"></path></svg></g></svg></g></svg></g></svg></g><g transform="matrix(1,0,0,1,71.07645542512121,0)"><svg viewBox="0 0 71.00553037691469 88.49840418303357" height="88.49840418303357" width="71.00553037691469"><g><svg xmlns="http://www.w3.org/2000/svg" xmlns:xlink="http://www.w3.org/1999/xlink" version="1.1" x="0" y="0" viewBox="13.894 4.999147523602847 72.21099999999998 90.00085247639716" enable-background="new 0 0 100 100" xml:space="preserve" height="88.49840418303357" width="71.00553037691469" class="icon-icon-0" data-fill-palette-color="quaternary" id="SvgjsSvg3540"><g fill="white"><path d="M32.708 38.211l0 23.576 20.418 11.789 20.418-11.787V38.211L53.125 26.424 32.708 38.211zM69.678 59.557l-16.553 9.555-16.552-9.557 0.001-19.111 16.551-9.557 16.553 9.557V59.557z" fill="white"></path><path d="M26.458 34.604l-0.001 30.791 26.668 15.397 26.668-15.395V34.604L53.125 19.207 26.458 34.604zM75.928 63.166L53.125 76.328 30.323 63.163l0.001-26.328 22.801-13.163 22.803 13.163V63.166z" fill="white"></path><path d="M53.125 11.918l-32.98 19.039L20.144 69.04l32.981 19.042 32.98-19.039V30.957L53.125 11.918zM82.24 66.811L53.125 83.618 24.01 66.808l0.001-33.618 29.114-16.808L82.24 33.189V66.811z" fill="white"></path><path d="M54.092 91.393L17.76 70.416l0.002-40.834 36.33-20.975c0.924-0.533 1.24-1.717 0.707-2.641s-1.715-1.242-2.641-0.707L13.896 27.35l-0.002 45.299L52.158 94.74c0.305 0.176 0.637 0.26 0.965 0.26 0.668 0 1.318-0.348 1.676-0.967C55.332 93.108 55.016 91.926 54.092 91.393z" fill="white"></path></g></svg></g></svg></g><g></g></svg></g></svg></g></svg></g></svg></g><defs><mask></mask></defs></svg><rect width="342.85155851775386" height="342.85155851775386" fill="black" stroke="none" visibility="hidden"></rect></g></mask><linearGradient x1="0.054" x2="0.941" y1="0.5" y2="0.5" id="e56bc056-1bba-4be3-a3ed-4bb432b0dadd"><stop stop-color="#26282a" offset="0"></stop><stop stop-color="#9e9fa0" offset="0.498"></stop><stop stop-color="#26282a" offset="1"></stop></linearGradient><rect width="342.852" height="342.852" fill="#ffffff" mask="url(#f0539eb8-6e61-4c34-a394-8956053a8c23)" data-fill-palette-color="quaternary"></rect></svg><rect width="342.85155851775386" height="342.85155851775386" fill="none" stroke="none" visibility="hidden"></rect></g></svg></g></svg>